<?xml version="1.0" encoding="UTF-8" standalone="no"?>
<svg width="120" height="50" xmlns="http://www.w3.org/2000/svg">
  <g
     class="layer"
     id="g10"
     transform="matrix(1.0015073,0,0,1,-7.6880043,0.17045455)">
    <text
       transform="scale(0.93925056,1.0646786)"
       font-style="normal"
       xml:space="preserve"
       font-size="24"
       y="29.425457"
       x="78.437035"
       style="font-style:normal;font-size:22.54201508px;font-family:serif;text-anchor:middle;fill:#3f007f;stroke:#000000;stroke-width:0">SongSt   r</text>
    <g
       id="g3726"
       transform="matrix(1.1057819,0,0,1,-14.9091301,0.34090909)">
      <polygon
         transform="translate(6.9886364)"
         style="fill:#ff7f00;stroke:#000000;stroke-width:0"
         cx="100.648861"
         cy="16.074522"
         id="svg_3"
         shape="star"
         point="5"
         r="489.417346"
         r2="195.766938"
         orient="point"
         strokecolor="#000000"
         strokeWidth="0"
         points="98.180954,26.990252 94.197403,31.613594 95.602753,23.866028 91.735443,18.975845 96.587532,18.81093 98.180954,11.16529 99.774376,18.81093 98.180954,11.16529 99.774376,18.81093 104.62646,18.975845 100.75916,23.866028 102.16451,31.613594 " />
      <path
         style="fill:#ffffff;stroke:#000000;stroke-width:0;stroke-dasharray:none"
         stroke-linejoin="null"
         stroke-linecap="null"
         d="m 103.2695,29.459882 2.00025,-7.264585 2.13574,7.20813 z"
         id="svg_4" />
    </g>
    <g
       stroke="null"
       transform="rotate(0.24799633,292.9075,-173.48609)"
       id="svg_15">
      <ellipse
         transform="matrix(0.82568966,0.0036643,-0.0035739,0.84657646,1.9827405,2.5774289)"
         id="svg_12"
         ry="5.9352641"
         rx="5.4646382"
         cy="22.38133"
         cx="17.749928"
         stroke-linecap="null"
         stroke-linejoin="null"
         style="fill:#000000;fill-opacity:0;stroke:#3f007f;stroke-dasharray:none" />
      <path
         id="svg_14"
         d="m 18.537903,26.548666 3.519963,4.0977 c 0,0 0.577705,0.532555 1.030154,0.02836 0.452449,-0.504195 0.06837,-0.955857 0.0675,-0.979649 -8.69e-4,-0.02379 -3.265017,-3.534121 -3.265886,-3.557913 -8.69e-4,-0.02379 -1.351729,0.411503 -1.351729,0.411503 z"
         stroke-linecap="null"
         stroke-linejoin="null"
         style="fill:#3f007f;stroke:#3f007f;stroke-dasharray:none" />
    </g>
  </g>
</svg>
