<?xml version="1.0"?>
<svg width="120" height="50" xmlns="http://www.w3.org/2000/svg" xmlns:svg="http://www.w3.org/2000/svg">
 <!-- Created with SVG-edit - https://github.com/SVG-Edit/svgedit-->
 <g class="layer">
  <title>Layer 1</title>
  <text stroke="#000000" transform="matrix(0.9805773496627808,0,0,1,0.4570392407476902,0) " font-style="normal" xml:space="preserve" text-anchor="middle" font-family="serif" font-size="24" id="svg_1" y="31.158201" x="69.437429" stroke-width="0" fill="#3f007f">SongSt  r</text>
  <polygon stroke="#000000" stroke-width="0" points="98.18095397949219,11.165289878845215 99.77437591552734,18.810930252075195 104.62646484375,18.975845336914062 100.7591552734375,23.86602783203125 102.16450500488281,31.61359405517578 98.18095397949219,26.990251541137695 94.19740295410156,31.61359405517578 95.60275268554688,23.86602783203125 91.73544311523438,18.975845336914062 96.58753204345703,18.810930252075195 98.18095397949219,11.165289878845215 99.77437591552734,18.810930252075195 " strokeWidth="0" strokecolor="#000000" fill="#ff7f00" orient="point" r2="195.766938" r="489.417346" point="5" shape="star" id="svg_3" cy="16.074522" cx="100.648861"/>
  <path stroke="#000000" id="svg_4" d="m96.110409,29.289427l2.000247,-7.264585l2.135742,7.20813l-4.13599,0.056455z" stroke-linecap="null" stroke-linejoin="null" stroke-dasharray="null" stroke-width="0" fill="#ffffff"/>
  <g stroke="null" transform="rotate(0.24799633026123047 17.66691780090429,23.71849441528345) " id="svg_15">
   <ellipse stroke="#3f007f" transform="matrix(0.825689655400622,0.003664304214753416,-0.003573898199397725,0.8465764595288884,1.982740540813861,2.577428874505136) " fill-opacity="0" id="svg_12" ry="5.935264" rx="5.464638" cy="22.38133" cx="17.749928" stroke-linecap="null" stroke-linejoin="null" stroke-dasharray="null" fill="#000000"/>
   <path stroke="#3f007f" id="svg_14" d="m18.537903,26.548666l3.519963,4.0977c0,0 0.577705,0.532555 1.030154,0.02836c0.452449,-0.504195 0.068367,-0.955857 0.067497,-0.979649c-0.000869,-0.023792 -3.265017,-3.534121 -3.265886,-3.557913c-0.000869,-0.023792 -1.351729,0.411503 -1.351729,0.411503z" stroke-linecap="null" stroke-linejoin="null" stroke-dasharray="null" fill="#3f007f"/>
  </g>
 </g>
</svg>